<svg width="16" height="16" viewBox="0 0 16 16" id="Icon-instagram" xmlns="http://www.w3.org/2000/svg">
    <path d="m8 0 3.3.1a6 6 0 0 1 1.9.4 4 4 0 0 1 2.3 2.3l.4 2a91.9 91.9 0 0 1 0 6.5 6 6 0 0 1-.4 1.9 4 4 0 0 1-2.3 2.3 6 6 0 0 1-2 .4 91.9 91.9 0 0 1-6.5 0 6 6 0 0 1-1.9-.4 4 4 0 0 1-2.3-2.3 6 6 0 0 1-.4-2 91.7 91.7 0 0 1 0-6.5c0-.7.2-1.3.4-1.9A4 4 0 0 1 2.8.5a6 6 0 0 1 2-.4H8Zm0 1a98.8 98.8 0 0 0-5 .4c-.7.4-1.3.9-1.6 1.6a98.8 98.8 0 0 0 0 10c.3.7.9 1.2 1.6 1.5a98.7 98.7 0 0 0 10 0c.7-.3 1.2-.8 1.5-1.6a98.7 98.7 0 0 0 0-10c-.3-.6-.8-1.2-1.6-1.5a98.8 98.8 0 0 0-5-.3Zm0 10.2a3 3 0 0 0 2.2-1 3 3 0 0 0 1-2.2 3 3 0 0 0-1-2.3A3 3 0 0 0 8 4.8a3 3 0 0 0-2.3 1A3 3 0 0 0 4.8 8a3 3 0 0 0 1 2.2 3 3 0 0 0 2.2 1Zm0-7.3a4 4 0 0 1 2.9 1.2A4 4 0 0 1 12 8a4 4 0 0 1-1.1 2.9 4 4 0 0 1-3 1.1A4 4 0 0 1 5.2 11a4 4 0 0 1-1.2-3c0-1 .4-2 1.2-2.8A4 4 0 0 1 8 4Zm5.2-.1-.3.6a1 1 0 0 1-.7.3c-.3 0-.5 0-.7-.3a.9.9 0 0 1-.2-.6 1 1 0 0 1 .9-1c.3 0 .5 0 .7.3.2.2.3.4.3.7Z"></path>
</svg>
