<svg width="22" height="22" viewBox="0 0 13 20" id="Icon-facebook" xmlns="http://www.w3.org/2000/svg">
    <path fill-rule="evenodd" clip-rule="evenodd" d="M5.1 1.8C6.1.8 7.4.3 8.8.3h2.7c.3 0 .6.2.6.5v3.6c0 .3-.3.6-.6.6h-3l-.1.3v2.2h3.1a.6.6 0 0 1 .5.7l-.9 3.6c0 .2-.3.4-.5.4H8.4v6.6c0 .3-.3.6-.6.6H4.2a.5.5 0 0 1-.6-.6v-6.6H1.4a.5.5 0 0 1-.5-.6V8c0-.3.2-.5.5-.5h2.2V5.3a5 5 0 0 1 1.5-3.5Zm3.7-.4a4 4 0 0 0-3 1.1c-.7.8-1 1.8-1 2.8V8c0 .3-.3.6-.6.6H2V11h2.2c.3 0 .5.2.5.5v6.7h2.6v-6.7c0-.3.2-.5.5-.5h2.4l.6-2.5h-3a.5.5 0 0 1-.5-.6V5.3c0-.4.1-.7.4-1 .3-.3.7-.4 1-.4H11V1.4H8.6Z"></path>
</svg>
